<?xml version="1.0" standalone="no"?>
<!DOCTYPE svg PUBLIC "-//W3C//DTD SVG 20010904//EN"
 "http://www.w3.org/TR/2001/REC-SVG-20010904/DTD/svg10.dtd">
<svg version="1.0" xmlns="http://www.w3.org/2000/svg"
 width="700.000000pt" height="700.000000pt" viewBox="0 0 700.000000 700.000000"
 preserveAspectRatio="xMidYMid meet">
<metadata>
Created by potrace 1.14, written by Peter Selinger 2001-2017
</metadata>
<g transform="translate(0.000000,700.000000) scale(0.100000,-0.100000)"
fill="#000000" stroke="none">
<path d="M4190 4318 c188 -40 561 -151 753 -224 222 -85 413 -201 528 -321 92
-97 133 -167 161 -275 19 -74 20 -91 10 -163 -34 -239 -236 -445 -587 -599
-368 -161 -789 -251 -1405 -301 l-175 -14 200 5 c588 14 1063 88 1480 231 636
218 916 581 734 953 -57 117 -189 248 -340 337 -296 175 -738 305 -1249 368
-138 17 -179 18 -110 3z"/>
<path d="M1380 4201 c-682 -232 -1070 -560 -1130 -956 -72 -474 355 -894 1181
-1164 1304 -426 3259 -358 4371 153 270 124 525 315 643 481 60 85 75 119 29
65 -221 -258 -598 -464 -1120 -614 -1122 -321 -2656 -292 -3694 69 -843 294
-1232 771 -1039 1275 38 100 97 188 193 287 139 145 330 274 560 376 66 29
132 58 146 65 57 25 -4 9 -140 -37z"/>
<path d="M3247 3930 c-203 -16 -436 -74 -547 -137 -204 -116 -242 -276 -97
-410 25 -23 60 -49 78 -58 l33 -18 -42 48 c-67 77 -78 148 -36 233 133 267
928 382 1445 209 55 -18 99 -31 99 -29 0 11 -182 86 -262 107 -184 49 -458 71
-671 55z"/>
<path d="M1482 3766 c-86 -92 -125 -176 -130 -279 -11 -209 120 -378 403 -519
788 -395 2372 -356 3025 74 66 43 206 175 197 185 -3 3 -26 -9 -50 -26 -71
-48 -233 -126 -346 -165 -706 -246 -1792 -243 -2483 8 -481 174 -695 454 -568
744 10 23 17 42 16 42 -2 0 -31 -29 -64 -64z"/>
</g>
</svg>
